<svg width="263" height="175" viewBox="0 0 263 175" fill="none" xmlns="http://www.w3.org/2000/svg">
<rect width="263" height="175" rx="15" fill="url(#paint0_linear_268_37)"/>
<path d="M20.7373 3L48.4744 61.5254H123.672L62.8358 102.949L86.073 169.975L25.2373 128.551L7.73742 135.5V100V79L2.00006 61.5254L20.7373 3Z" fill="url(#paint1_linear_268_37)"/>
<path d="M95.5831 79.0635L97.5102 84.1374H103.746L98.7011 87.2733L100.628 92.3472L95.5831 89.2113L90.5381 92.3472L92.4651 87.2733L87.4201 84.1374H93.6561L95.5831 79.0635Z" fill="#E2CD14"/>
<path d="M113.92 79.0635L115.847 84.1374H122.083L117.038 87.2733L118.965 92.3472L113.92 89.2113L108.875 92.3472L110.802 87.2733L105.757 84.1374H111.993L113.92 79.0635Z" fill="#E2CD14"/>
<path d="M132.256 79.0635L134.183 84.1374H140.419L135.374 87.2733L137.301 92.3472L132.256 89.2113L127.211 92.3472L129.138 87.2733L124.093 84.1374H130.329L132.256 79.0635Z" fill="#E2CD14"/>
<path d="M150.593 79.0635L152.52 84.1374H158.756L153.711 87.2733L155.638 92.3472L150.593 89.2113L145.548 92.3472L147.475 87.2733L142.43 84.1374H148.666L150.593 79.0635Z" fill="#E2CD14"/>
<path d="M168.93 79.0635L170.857 84.1374H177.093L172.048 87.2733L173.975 92.3472L168.93 89.2113L163.885 92.3472L165.812 87.2733L160.767 84.1374H167.003L168.93 79.0635Z" fill="#D6D6D6"/>
<path d="M118.692 88.475L120.467 88.45V89.475C120.267 89.4417 120.034 89.425 119.767 89.425C119.5 89.425 119.2 89.4417 118.867 89.475C118.867 90.7583 118.25 92.0583 117.017 93.375C115.784 94.6917 114.292 95.7583 112.542 96.575C110.809 97.4083 109.192 97.825 107.692 97.825C106.909 97.825 106.267 97.625 105.767 97.225C105.284 96.825 105.042 96.3 105.042 95.65C105.042 94.6833 105.684 93.675 106.967 92.625C108.25 91.575 109.75 90.7083 111.467 90.025C113.184 89.3417 114.734 88.9417 116.117 88.825C115.95 88.575 115.692 88.3583 115.342 88.175C114.992 87.9917 114.275 87.7083 113.192 87.325C112.109 86.925 111.342 86.4917 110.892 86.025C110.442 85.5417 110.217 84.8667 110.217 84C110.217 83.1333 110.684 82.1417 111.617 81.025C112.55 79.9083 113.65 78.975 114.917 78.225C116.2 77.4583 117.325 77.075 118.292 77.075C118.725 77.075 119.084 77.2333 119.367 77.55C119.65 77.85 119.792 78.225 119.792 78.675C119.792 79.4083 119.35 80.3333 118.467 81.45C117.584 82.55 116.6 83.3917 115.517 83.975L114.917 83.125C115.567 82.7917 116.134 82.275 116.617 81.575C117.117 80.8583 117.367 80.2417 117.367 79.725C117.367 79.2083 117.092 78.95 116.542 78.95C115.759 78.95 114.859 79.4417 113.842 80.425C112.842 81.3917 112.342 82.3 112.342 83.15C112.342 83.7333 112.492 84.1917 112.792 84.525C113.092 84.8583 113.85 85.275 115.067 85.775C116.284 86.2583 117.15 86.6917 117.667 87.075C118.184 87.4417 118.525 87.9083 118.692 88.475ZM107.542 95C107.542 95.8 108.192 96.2 109.492 96.2C110.209 96.2 111.134 95.9333 112.267 95.4C113.417 94.8833 114.425 94.15 115.292 93.2C116.175 92.2667 116.617 91.3083 116.617 90.325C116.617 90.2083 116.592 90.0333 116.542 89.8C114.259 90.0167 112.184 90.6583 110.317 91.725C108.467 92.7917 107.542 93.8833 107.542 95ZM127.316 90.2L127.866 90.825C127.449 91.475 126.941 91.9833 126.341 92.35C125.757 92.7167 125.166 92.9 124.566 92.9C123.966 92.9 123.491 92.7333 123.141 92.4C122.791 92.05 122.616 91.575 122.616 90.975C122.616 89.575 123.141 87.6417 124.191 85.175C123.341 85.3083 122.491 85.5083 121.641 85.775L121.466 84.8L121.441 84.775C122.274 84.425 123.366 84.1417 124.716 83.925C124.849 83.675 125.149 83.0667 125.616 82.1C126.549 80.1833 127.216 78.9417 127.616 78.375L128.691 78.8C128.524 79.1667 128.232 79.7833 127.816 80.65C127.399 81.5 126.932 82.4667 126.416 83.55C127.166 83.5 127.757 83.475 128.191 83.475C128.624 83.475 128.957 83.5417 129.191 83.675V84.75C128.957 84.7 128.616 84.675 128.166 84.675C127.732 84.675 126.949 84.75 125.816 84.9C124.832 87.1 124.341 88.7 124.341 89.7C124.341 90.0833 124.457 90.4 124.691 90.65C124.941 90.9 125.266 91.025 125.666 91.025C126.082 91.025 126.632 90.75 127.316 90.2ZM140.443 90.475L141.018 90.9C140.784 91.4 140.351 91.875 139.718 92.325C139.101 92.775 138.534 93 138.018 93C137.034 93 136.543 92.4833 136.543 91.45C136.543 90.9667 136.668 90.3917 136.918 89.725L135.993 90.675C135.093 91.5917 134.309 92.2083 133.643 92.525C132.993 92.8417 132.351 93 131.718 93C131.084 93 130.601 92.825 130.268 92.475C129.951 92.1083 129.793 91.6083 129.793 90.975C129.793 89.8083 130.243 88.6583 131.143 87.525C132.043 86.375 133.193 85.4417 134.593 84.725C135.993 84.0083 137.393 83.6417 138.793 83.625L138.843 84.45L137.793 84.675C136.276 85.0083 134.934 85.675 133.768 86.675C132.618 87.675 132.043 88.675 132.043 89.675C132.043 90.6583 132.443 91.15 133.243 91.15C133.993 91.15 134.918 90.625 136.018 89.575C137.118 88.525 138.034 87.2917 138.768 85.875L139.818 86.5C138.784 88.5833 138.268 89.9083 138.268 90.475C138.268 90.7083 138.343 90.9083 138.493 91.075C138.659 91.225 138.818 91.3 138.968 91.3C139.134 91.3 139.243 91.2917 139.293 91.275C139.343 91.2583 139.393 91.2417 139.443 91.225C139.493 91.1917 139.551 91.15 139.618 91.1C139.701 91.05 139.768 91 139.818 90.95C139.884 90.9 139.984 90.825 140.118 90.725C140.251 90.625 140.359 90.5417 140.443 90.475ZM148.437 84.15C148.853 84.15 149.195 84.2917 149.462 84.575C149.728 84.8583 149.862 85.225 149.862 85.675C149.862 86.575 149.345 87.525 148.312 88.525L147.712 88.05C147.945 87.5333 148.062 87.1583 148.062 86.925C148.062 86.475 147.812 86.25 147.312 86.25C146.812 86.25 146.337 86.5667 145.887 87.2C145.437 87.8333 144.903 88.8167 144.287 90.15C143.687 91.4667 143.228 92.4 142.912 92.95L141.487 92.325C142.403 90.2417 142.928 89.0167 143.062 88.65C143.512 87.35 143.737 85.7 143.737 83.7L145.137 83.325C145.087 84.4083 145.012 85.25 144.912 85.85C144.812 86.4333 144.57 87.3917 144.187 88.725C145.87 85.675 147.287 84.15 148.437 84.15ZM154.173 101.7L152.823 101.15C152.823 100.017 154.482 95.7917 157.798 88.475C156.532 90.175 155.465 91.3417 154.598 91.975C153.748 92.5917 152.99 92.9 152.323 92.9C151.023 92.9 150.373 92.175 150.373 90.725C150.373 89.525 150.782 88.3583 151.598 87.225C152.432 86.0917 153.532 85.175 154.898 84.475C156.265 83.7583 157.673 83.4 159.123 83.4L159.348 84.275C157.782 84.3083 156.265 84.825 154.798 85.825C153.348 86.825 152.623 88.0167 152.623 89.4C152.623 90.2833 152.998 90.725 153.748 90.725C154.298 90.725 154.898 90.4167 155.548 89.8C156.215 89.1667 156.915 88.4 157.648 87.5C158.398 86.5833 158.998 85.9583 159.448 85.625L160.423 86.175C156.74 93.575 154.657 98.75 154.173 101.7Z" fill="#CE1D1D"/>
<defs>
<linearGradient id="paint0_linear_268_37" x1="-1.31075e-05" y1="8.93819" x2="261.36" y2="210.615" gradientUnits="userSpaceOnUse">
<stop stop-color="#9EFB55"/>
<stop offset="1" stop-color="#221724"/>
<stop offset="1" stop-color="#777777"/>
</linearGradient>
<linearGradient id="paint1_linear_268_37" x1="96.8556" y1="79.0286" x2="4.44507" y2="84.1129" gradientUnits="userSpaceOnUse">
<stop stop-color="white" stop-opacity="0.37"/>
<stop offset="0.285803" stop-color="#D9D9D9" stop-opacity="0.430809"/>
<stop offset="1" stop-color="#D9D9D9" stop-opacity="0"/>
</linearGradient>
</defs>
</svg>
